<?xml version="1.0" encoding="UTF-8"?><svg id="a" xmlns="http://www.w3.org/2000/svg" viewBox="0 0 211.16 136.07"><g><path d="M27.26,81.01l-3.49,3.61c-2.9-2.82-5.74-4.23-8.51-4.23-1.76,0-3.27,.58-4.53,1.75-1.26,1.16-1.89,2.52-1.89,4.07,0,1.37,.52,2.68,1.55,3.92,1.04,1.27,3.21,2.75,6.53,4.46,4.04,2.09,6.79,4.11,8.24,6.05,1.42,1.96,2.14,4.18,2.14,6.63,0,3.46-1.22,6.4-3.65,8.8-2.43,2.4-5.48,3.61-9.12,3.61-2.43,0-4.76-.53-6.97-1.59-2.21-1.06-4.04-2.52-5.49-4.38l3.41-3.88c2.77,3.13,5.71,4.69,8.82,4.69,2.18,0,4.03-.7,5.56-2.09,1.53-1.4,2.29-3.04,2.29-4.92,0-1.55-.51-2.93-1.52-4.15-1.01-1.19-3.29-2.69-6.84-4.5-3.81-1.96-6.4-3.9-7.77-5.82-1.37-1.91-2.06-4.1-2.06-6.55,0-3.2,1.09-5.87,3.28-7.99,2.19-2.12,4.95-3.18,8.29-3.18,3.88,0,7.79,1.9,11.73,5.7Z" style="fill:#fff;"/><path d="M72.39,104.59l4.58,2.4c-1.5,2.95-3.23,5.33-5.2,7.13-1.97,1.81-4.18,3.19-6.64,4.13-2.46,.94-5.24,1.42-8.34,1.42-6.88,0-12.26-2.25-16.14-6.77-3.88-4.51-5.82-9.61-5.82-15.3,0-5.35,1.64-10.12,4.93-14.31,4.17-5.33,9.74-7.99,16.73-7.99s12.94,2.73,17.23,8.18c3.05,3.85,4.6,8.66,4.66,14.42H40.4c.1,4.9,1.67,8.92,4.7,12.05,3.03,3.13,6.77,4.7,11.22,4.7,2.15,0,4.24-.37,6.27-1.12,2.03-.75,3.76-1.74,5.18-2.97,1.42-1.24,2.96-3.23,4.62-5.99Zm0-11.36c-.72-2.89-1.78-5.21-3.16-6.94-1.38-1.73-3.22-3.13-5.49-4.19-2.28-1.06-4.67-1.59-7.18-1.59-4.14,0-7.7,1.33-10.68,3.99-2.17,1.94-3.82,4.85-4.93,8.72h31.45Z" style="fill:#fff;"/><path d="M88.44,76.4h5.43v7.29c1.89-2.69,3.83-4.65,5.82-5.89,2.74-1.65,5.63-2.48,8.66-2.48,2.04,0,3.98,.4,5.82,1.2,1.84,.8,3.34,1.87,4.5,3.2,1.16,1.33,2.17,3.24,3.03,5.72,1.8-3.31,4.06-5.82,6.77-7.54,2.71-1.72,5.62-2.58,8.74-2.58,2.91,0,5.49,.74,7.72,2.21,2.23,1.47,3.89,3.53,4.97,6.17,1.08,2.64,1.62,6.59,1.62,11.87v23.03h-5.54v-23.03c0-4.52-.32-7.63-.97-9.33-.64-1.69-1.75-3.06-3.3-4.09-1.56-1.03-3.42-1.55-5.58-1.55-2.63,0-5.03,.78-7.21,2.33-2.18,1.55-3.77,3.62-4.77,6.2-1,2.59-1.51,6.9-1.51,12.95v16.52h-5.43v-21.6c0-5.09-.32-8.55-.95-10.37s-1.74-3.28-3.31-4.38c-1.58-1.1-3.45-1.65-5.62-1.65-2.51,0-4.85,.76-7.04,2.27-2.18,1.51-3.8,3.55-4.85,6.11-1.05,2.56-1.57,6.47-1.57,11.75v17.88h-5.43v-42.19Z" style="fill:#fff;"/><path d="M204.99,76.4v42.19h-5.35v-7.25c-2.27,2.77-4.83,4.85-7.66,6.24-2.83,1.4-5.93,2.09-9.29,2.09-5.97,0-11.07-2.17-15.3-6.49-4.23-4.33-6.34-9.6-6.34-15.8s2.13-11.27,6.4-15.59c4.27-4.32,9.4-6.47,15.39-6.47,3.46,0,6.6,.74,9.4,2.21s5.27,3.68,7.39,6.63v-7.75h5.35Zm-21.69,4.15c-3.02,0-5.81,.74-8.37,2.23-2.56,1.49-4.59,3.57-6.1,6.26s-2.27,5.53-2.27,8.52,.76,5.81,2.28,8.52c1.52,2.71,3.57,4.82,6.14,6.33s5.33,2.27,8.27,2.27,5.78-.75,8.44-2.25c2.66-1.5,4.7-3.52,6.14-6.08,1.43-2.56,2.15-5.43,2.15-8.64,0-4.88-1.61-8.96-4.82-12.24-3.21-3.28-7.17-4.92-11.87-4.92Z" style="fill:#fff;"/></g><g><path d="M79.62,50.18H45.61c.49,3,1.8,5.38,3.94,7.15,2.13,1.77,4.85,2.66,8.16,2.66,3.95,0,7.35-1.38,10.2-4.15l8.92,4.19c-2.22,3.15-4.89,5.49-7.99,7-3.1,1.51-6.79,2.27-11.05,2.27-6.62,0-12.01-2.09-16.17-6.26-4.16-4.17-6.24-9.4-6.24-15.68s2.07-11.78,6.22-16.03c4.15-4.25,9.35-6.38,15.61-6.38,6.64,0,12.05,2.13,16.21,6.38,4.16,4.25,6.24,9.87,6.24,16.85l-.04,2.02Zm-10.58-8.34c-.7-2.35-2.08-4.27-4.14-5.74-2.06-1.47-4.45-2.21-7.17-2.21-2.95,0-5.54,.83-7.77,2.48-1.4,1.03-2.69,2.86-3.88,5.47h22.95Z" style="fill:#fff;"/><path d="M89.54,26.03h10.59v4.32c2.4-2.02,4.57-3.43,6.52-4.22,1.95-.79,3.94-1.19,5.98-1.19,4.18,0,7.73,1.46,10.65,4.38,2.45,2.48,3.68,6.15,3.68,11.01v27.88h-10.47v-18.47c0-5.04-.23-8.38-.68-10.03-.45-1.65-1.24-2.91-2.36-3.78s-2.51-1.3-4.16-1.3c-2.14,0-3.98,.72-5.51,2.15s-2.6,3.42-3.19,5.95c-.31,1.32-.46,4.17-.46,8.56v16.92h-10.59V26.03Z" style="fill:#fff;"/><path d="M183.27,24.94c3.98,0,7.72,1,11.22,2.99,3.5,1.99,6.24,4.69,8.2,8.1,1.96,3.41,2.95,7.1,2.95,11.05s-.99,7.7-2.97,11.17c-1.98,3.46-4.67,6.17-8.08,8.12-3.41,1.95-7.17,2.93-11.28,2.93-6.05,0-11.21-2.15-15.49-6.46-4.28-4.3-6.42-9.53-6.42-15.68,0-6.59,2.42-12.08,7.25-16.48,4.24-3.83,9.11-5.74,14.62-5.74Zm.17,9.96c-3.29,0-6.03,1.14-8.21,3.43-2.19,2.29-3.28,5.22-3.28,8.78s1.08,6.64,3.24,8.92c2.16,2.27,4.9,3.41,8.21,3.41s6.07-1.15,8.27-3.45,3.3-5.26,3.3-8.88-1.08-6.56-3.24-8.82c-2.16-2.26-4.93-3.39-8.29-3.39Z" style="fill:#fff;"/></g></svg>