<?xml version="1.0" standalone="no"?>
<!DOCTYPE svg PUBLIC "-//W3C//DTD SVG 20010904//EN"
 "http://www.w3.org/TR/2001/REC-SVG-20010904/DTD/svg10.dtd">
<svg version="1.0" xmlns="http://www.w3.org/2000/svg"
 width="700.000000pt" height="700.000000pt" viewBox="0 0 700.000000 700.000000"
 preserveAspectRatio="xMidYMid meet">
<metadata>
Created by potrace 1.14, written by Peter Selinger 2001-2017
</metadata>
<g transform="translate(0.000000,700.000000) scale(0.100000,-0.100000)"
fill="#000000" stroke="none">
<path d="M3278 6996 c-1 -2 -42 -6 -89 -10 -47 -4 -95 -8 -105 -10 -10 -2 -46
-7 -79 -11 -59 -7 -79 -10 -125 -20 -34 -7 -69 -14 -105 -21 -223 -40 -571
-162 -826 -289 -159 -79 -377 -208 -454 -267 -5 -5 -53 -40 -105 -79 -245
-185 -497 -435 -677 -674 -325 -430 -547 -924 -647 -1440 -30 -156 -37 -203
-53 -375 -15 -161 -8 -605 11 -707 2 -10 7 -43 10 -73 7 -62 12 -94 26 -165 6
-27 12 -59 14 -70 31 -163 115 -435 191 -620 174 -422 456 -839 787 -1162 82
-79 118 -112 228 -207 79 -68 418 -306 436 -306 2 0 23 -12 46 -26 133 -84
457 -228 658 -292 168 -53 243 -73 365 -98 135 -27 153 -30 224 -40 25 -3 57
-8 71 -10 73 -11 248 -19 430 -19 254 0 367 9 575 45 33 6 76 13 95 16 19 3
87 18 151 34 946 235 1749 846 2224 1696 126 224 212 427 304 719 10 30 49
183 57 220 21 100 54 294 60 350 3 39 8 84 11 100 8 60 10 513 2 597 -13 144
-22 210 -39 308 -6 36 -13 79 -16 95 -12 67 -75 306 -104 395 -92 275 -195
497 -363 775 -55 91 -199 291 -263 365 -12 14 -41 48 -64 75 -131 155 -336
348 -510 480 -256 194 -484 327 -766 447 -247 106 -562 197 -809 234 -27 4
-57 9 -65 10 -8 2 -44 6 -80 9 -36 4 -76 9 -90 12 -27 5 -536 14 -542 9z m430
-570 c53 -3 140 -13 192 -21 52 -8 113 -17 135 -20 97 -15 386 -93 460 -124
11 -5 63 -26 115 -46 105 -42 308 -142 365 -180 20 -14 38 -25 41 -25 14 0
251 -166 329 -231 518 -430 858 -969 1009 -1600 31 -128 32 -142 5 -109 -120
146 -304 337 -419 433 -47 40 -87 75 -90 78 -13 18 -238 163 -297 193 -311
156 -594 147 -818 -24 -122 -94 -239 -229 -523 -605 -108 -143 -202 -267 -209
-275 -6 -8 -55 -69 -108 -135 -169 -211 -384 -438 -520 -551 -33 -27 -71 -59
-85 -72 -54 -50 -311 -213 -411 -261 -100 -48 -308 -123 -374 -136 -16 -3 -43
-7 -60 -10 -16 -3 -55 -10 -85 -16 -86 -17 -391 -19 -499 -4 -206 30 -357 68
-556 142 -146 54 -425 189 -555 268 -52 32 -112 67 -132 78 -32 18 -38 26 -39
56 -1 20 -3 47 -5 61 -11 82 -3 485 11 540 2 8 6 42 10 75 7 67 46 267 66 336
7 24 13 49 15 56 13 66 113 331 174 459 150 316 324 559 589 824 422 421 957
703 1526 805 145 26 202 33 330 41 55 4 101 7 102 8 4 3 220 -2 311 -8z m1984
-2595 c222 -50 462 -285 669 -656 l45 -80 -13 -75 c-7 -41 -14 -86 -17 -100
-23 -135 -104 -396 -178 -570 -126 -298 -347 -635 -568 -865 -53 -55 -193
-189 -231 -220 -359 -297 -714 -483 -1142 -600 -53 -14 -107 -28 -120 -30 -12
-3 -46 -10 -76 -16 -55 -11 -62 -12 -141 -23 -167 -23 -250 -28 -418 -28 -192
-1 -359 13 -487 38 -11 3 -36 7 -55 10 -76 12 -251 57 -355 90 -591 191 -1098
559 -1474 1067 -174 234 -356 593 -426 836 l-7 24 33 -21 c99 -60 438 -232
458 -232 4 0 25 -8 47 -19 50 -24 286 -109 319 -115 13 -3 29 -7 34 -10 10 -7
230 -62 276 -70 127 -22 232 -37 300 -43 151 -12 420 -6 515 12 13 3 42 7 65
10 187 27 452 117 641 220 75 41 263 160 274 174 3 3 59 46 125 96 66 49 122
92 125 95 3 3 50 41 105 85 101 79 396 324 405 335 3 4 86 74 185 156 292 242
455 359 610 437 187 95 330 121 477 88z"/>
</g>
</svg>
