<?xml version="1.0" encoding="UTF-8"?><svg id="uuid-fefcf8b9-31da-4e74-b65f-80d1c99799c8" xmlns="http://www.w3.org/2000/svg" viewBox="0 0 144.41 144.41"><path d="M72.21,0C32.39,0,0,32.39,0,72.2s32.39,72.21,72.21,72.21,72.21-32.39,72.21-72.21S112.02,0,72.21,0Zm0,11.67c29.59,0,54.28,21.35,59.51,49.45-5.95-7.43-19.87-22.25-32.04-16.01-15.65,8.02-32.87,68.46-87.68,33.35-.21-2.06-.32-4.15-.32-6.26,0-33.38,27.16-60.54,60.54-60.54Zm0,121.08c-27.15,0-50.19-17.97-57.84-42.64,11.52,6.91,37.66,18.87,60.5,2.36,28.52-20.62,40.19-43.23,57.29-11.95-4.06,29.46-29.39,52.23-59.96,52.23Z" style="fill:#fff;"/></svg>