<?xml version="1.0" encoding="UTF-8"?><svg id="a" xmlns="http://www.w3.org/2000/svg" viewBox="0 0 166.87 166.87"><g><path d="M83.44,123.38c5.44,0,10.63-1.1,15.36-3.07-1.06-12.19-7.82-23.7-19.17-30.32h0c-13.18-7.69-21.9-20.12-25.28-33.89-6.72,7.15-10.85,16.77-10.85,27.33,0,22.03,17.92,39.95,39.95,39.95Z" style="fill:#fff;"/><path d="M83.44,43.49c-5.44,0-10.63,1.1-15.36,3.07,1.06,12.19,7.82,23.7,19.17,30.32h0c13.18,7.69,21.9,20.12,25.28,33.89,6.72-7.15,10.85-16.77,10.85-27.33,0-22.03-17.92-39.95-39.95-39.95Z" style="fill:#fff;"/></g><path d="M83.44,154.84c-39.37,0-71.4-32.03-71.4-71.4S44.07,12.04,83.44,12.04s71.4,32.03,71.4,71.4-32.03,71.4-71.4,71.4Zm0-134.8c-34.96,0-63.4,28.44-63.4,63.4s28.44,63.4,63.4,63.4,63.4-28.44,63.4-63.4-28.44-63.4-63.4-63.4Z" style="fill:#fff;"/></svg>